<?xml version="1.0" encoding="UTF-8" standalone="no"?>
<!-- Created with Inkscape (http://www.inkscape.org/) -->

<svg
   xmlns:dc="http://purl.org/dc/elements/1.1/"
   xmlns:cc="http://creativecommons.org/ns#"
   xmlns:rdf="http://www.w3.org/1999/02/22-rdf-syntax-ns#"
   xmlns:svg="http://www.w3.org/2000/svg"
   xmlns="http://www.w3.org/2000/svg"
   xmlns:sodipodi="http://sodipodi.sourceforge.net/DTD/sodipodi-0.dtd"
   xmlns:inkscape="http://www.inkscape.org/namespaces/inkscape"
   width="210mm"
   height="297mm"
   viewBox="0 0 210 297"
   version="1.1"
   id="svg8"
   inkscape:version="0.92.4 (5da689c313, 2019-01-14)"
   sodipodi:docname="drawing.svg">
  <defs
     id="defs2" />
  <sodipodi:namedview
     id="base"
     pagecolor="#ffffff"
     bordercolor="#666666"
     borderopacity="1.0"
     inkscape:pageopacity="0.0"
     inkscape:pageshadow="2"
     inkscape:zoom="0.24748737"
     inkscape:cx="423.00217"
     inkscape:cy="1385.0658"
     inkscape:document-units="mm"
     inkscape:current-layer="layer1"
     showgrid="false"
     showguides="true"
     inkscape:guide-bbox="true"
     inkscape:window-width="1024"
     inkscape:window-height="706"
     inkscape:window-x="-8"
     inkscape:window-y="-8"
     inkscape:window-maximized="1">
    <sodipodi:guide
       position="25.657875,85.526249"
       orientation="0,1"
       id="guide891"
       inkscape:locked="false" />
  </sodipodi:namedview>
  <metadata
     id="metadata5">
    <rdf:RDF>
      <cc:Work
         rdf:about="">
        <dc:format>image/svg+xml</dc:format>
        <dc:type
           rdf:resource="http://purl.org/dc/dcmitype/StillImage" />
        <dc:title></dc:title>
      </cc:Work>
    </rdf:RDF>
  </metadata>
  <g
     inkscape:label="Layer 1"
     inkscape:groupmode="layer"
     id="layer1">
    <g
       id="g905">
      <path
         inkscape:connector-curvature="0"
         d="m 30.278032,100.20332 c -0.59522,-0.51431 -0.96493,-1.200545 -1.33268,-1.883643 -1.23822,-2.199511 -2.08842,-4.407555 -2.59189,-6.863666 -0.18307,-1.16641 -0.33576,-2.35859 -0.18612,-3.539181 0.0858,-0.676441 0.20193,-0.982664 0.39048,-1.631869 0.55231,-1.612913 1.40364,-3.097866 2.26524,-4.561159 0.8785,-1.458429 1.94431,-2.776618 3.07164,-4.046481 0.88427,-0.987635 1.95842,-1.762425 3.07557,-2.462005 0.79712,-0.460136 1.60088,-0.917563 2.4408,-1.295681 0.58224,-0.270192 1.1996,-0.391541 1.83463,-0.301904 0.71873,0.156587 1.165895,0.675912 1.574835,1.246506 0.781613,1.233058 1.410547,2.561385 2.076671,3.85667 0.247786,0.48515 0.493764,0.971214 0.741794,1.456239 0.283891,0.637545 0.382407,1.319805 0.483377,2.003433 0.03942,0.678191 0.19868,1.357642 0.05385,2.027973 -0.16719,0.610889 -0.623229,0.977237 -1.125522,1.314892 -0.479244,0.301713 -0.981547,0.568279 -1.505323,0.7834 -0.690822,0.167924 -1.36441,0.380658 -2.023992,0.645459 -0.72888,0.295091 -1.42946,0.644442 -2.05535,1.122535 -0.17751,0.191124 -0.38317,0.366834 -0.49828,0.606689 -0.0186,0.0387 -0.0446,0.08223 -0.0347,0.123999 0.006,0.02532 0.0831,0.05455 0.0715,0.03124 -0.32761,-0.660113 -0.68499,-1.305023 -1.02749,-1.957529 0.43643,-0.09362 0.84522,-0.349643 1.24596,-0.544825 0.72597,-0.356494 1.43139,-0.753221 2.17112,-1.080844 0.678978,-0.262775 1.410221,-0.387174 2.137056,-0.349826 0.654453,0.02851 1.203679,0.305218 1.681456,0.735903 0.447383,0.484192 0.755286,1.07328 1.063662,1.650539 0.579144,1.184258 1.34848,2.299341 1.679277,3.586336 0.176643,0.715644 0.0536,1.42756 -0.105581,2.132136 -0.179689,0.642962 -0.549284,1.202363 -1.018494,1.669257 -0.477962,0.473287 -1.02438,0.865131 -1.598928,1.210965 -0.528854,0.31917 -1.080609,0.597212 -1.628514,0.881515 -0.588025,0.267927 -1.20293,0.405817 -1.846494,0.387376 -0.72886,-0.05419 -1.33967,-0.410839 -1.92132,-0.823855 -0.64377,-0.464116 -1.21701,-1.014654 -1.74857,-1.601644 -0.50836,-0.575527 -0.87332,-1.256077 -1.2357,-1.928005 -0.72658,-1.386136 -1.43813,-2.780116 -2.15072,-4.173487 -0.26209,-0.620729 -0.46082,-1.292787 -0.43547,-1.971098 0.0941,-0.695934 0.54037,-1.305068 0.93014,-1.87299 0.59426,-0.846643 1.27747,-1.625308 1.93321,-2.423884 0.65565,-0.809168 1.38594,-1.558281 2.11789,-2.298682 0.66925,-0.688882 1.49144,-1.17426 2.31441,-1.651826 0.654268,-0.399846 1.314935,-0.752619 2.069465,-0.906513 0.670042,-0.09578 1.324288,-0.145674 1.982283,0.0294 0.595003,0.17252 1.135949,0.453266 1.631738,0.820189 0.401822,0.286804 0.827611,0.537309 1.197878,0.865406 0.304646,0.290305 0.516865,0.654281 0.719537,1.018574 0.440401,0.825623 0.860012,1.662971 1.286863,2.495116 0.118536,0.231127 0.226566,0.452844 0.314946,0.697488 0.201762,0.500191 0.318063,1.021175 0.349772,1.558577 0.08151,0.692122 0.141647,1.383263 0.140468,2.080254 -0.04008,0.789181 -0.0797,1.577841 -0.103037,2.367524 0.01666,0.814512 -0.04954,1.622211 -0.123178,2.432428 -0.04724,0.814034 -0.05407,1.628817 -0.107762,2.443483 -0.08461,0.548626 -0.05338,1.102638 -0.04658,1.654536 -0.01413,0.08993 1e-4,0.163553 -0.09835,0.209418 -0.102014,0.04752 -0.240383,0.08599 -0.311433,-0.04341 -1.094614,-1.993615 -0.995977,-1.344504 -1.107624,-2.321738 -0.10547,-0.600408 -0.06486,-1.224379 -0.03732,-1.833448 -0.0043,-0.70526 0.249747,-1.363492 0.490954,-2.014093 0.2324,-0.594698 0.479876,-1.167877 0.59026,-1.79955 0.138639,-0.661661 0.146047,-1.338331 0.266361,-2.001726 0.08809,-0.627096 0.11638,-1.254349 0.131755,-1.886512 0.05606,-0.702747 0.224287,-1.388147 0.312546,-2.084911 0.07739,-0.550601 0.150131,-1.098258 0.279451,-1.639793 0.120843,-0.525257 0.32159,-1.027787 0.56631,-1.50678 0.277075,-0.497613 0.683675,-0.888176 1.106617,-1.260909 0.482313,-0.441378 0.998807,-0.844527 1.551194,-1.194072 0.550599,-0.383145 1.166425,-0.577922 1.828223,-0.644207 0.64768,-0.04496 1.153588,0.218602 1.646817,0.604786 0.454317,0.397146 0.773255,0.90783 1.070548,1.425661 0.664478,1.229928 1.29032,2.480406 1.924535,3.726186 0.366675,0.722019 0.738165,1.441572 1.105685,2.16316 0.527687,0.919512 0.769688,1.950213 0.987578,2.976822 0.252112,1.337077 0.40996,2.692667 0.496813,4.050183 0.114316,1.314836 0.19394,2.631607 0.181907,3.951476 0.02009,0.921567 -0.12493,1.796368 -0.519159,2.628814 -0.274739,0.544803 -0.731408,0.892559 -1.243179,1.194981 -0.753405,0.400567 -1.556727,0.317668 -2.359904,0.149173 -0.942388,-0.202149 -1.760629,-0.739437 -2.520972,-1.309726 -0.752684,-0.528472 -1.349551,-1.197866 -1.8725,-1.946228 -0.697952,-1.181418 -1.601471,-2.380391 -1.827963,-3.745484 -0.06518,-0.851198 0.08827,-1.69504 0.408051,-2.482158 0.334904,-0.752518 0.770778,-1.458407 1.316904,-2.074846 0.428428,-0.467187 0.963056,-0.805909 1.512903,-1.110599 0.44398,-0.241935 0.89403,-0.472465 1.343916,-0.703151 0.381581,-0.191075 0.764721,-0.36328 1.087724,-0.645463 0.351529,-0.364553 0.445682,-0.802048 0.498525,-1.289211 0.02281,-0.474166 -0.175223,-0.906245 -0.367046,-1.327734 -0.0338,-0.06985 -0.06761,-0.139685 -0.101413,-0.209527 0,0 1.296667,1.785976 1.296667,1.785976 v 0 c 0.03173,0.07062 0.06347,0.141246 0.0952,0.211868 0.18273,0.447077 0.342901,0.903367 0.26565,1.394276 -0.09269,0.521103 -0.232352,0.995496 -0.631295,1.370019 -0.335488,0.298506 -0.732958,0.481512 -1.135439,0.675535 -0.449736,0.224144 -0.901968,0.443672 -1.344523,0.681848 -0.524835,0.296417 -1.045694,0.606775 -1.460218,1.053004 -0.527846,0.602818 -0.949008,1.284225 -1.258243,2.024738 -0.286703,0.776887 -0.423752,1.607664 -0.292354,2.432886 0.228421,0.923965 0.133187,0.420554 -0.779185,-1.269848 -0.04939,-0.09131 0.09611,0.184027 0.145161,0.275513 0.167012,0.311262 0.341094,0.61885 0.530435,0.917185 0.500387,0.760279 1.06494,1.45767 1.814776,1.98998 0.730361,0.567269 1.52232,1.114811 2.431157,1.338787 0.747797,0.162534 1.489766,0.263835 2.188366,-0.129917 0.465708,-0.288319 0.890993,-0.607887 1.142412,-1.111687 0.367615,-0.798448 0.482394,-1.645297 0.478844,-2.521846 0.01478,-1.304111 -0.06956,-2.604838 -0.170795,-3.904708 -0.104113,-1.365002 -0.268848,-2.72884 -0.547395,-4.070027 -0.236713,-1.032203 -0.518319,-2.054944 -1.055343,-2.978096 -0.375619,-0.726525 -0.746652,-1.455389 -1.119738,-2.183215 -0.346433,-0.677461 -1.092656,-2.128122 0.487554,0.945354 0.05759,0.11201 -0.121787,-0.240695 -0.304436,-0.587835 -0.04605,-0.08751 -0.09273,-0.17468 -0.139081,-0.262024 -0.283043,-0.514774 -0.577284,-1.029398 -0.994328,-1.450005 -0.439639,-0.38791 -0.883387,-0.689727 -1.495424,-0.675597 -0.637455,0.02565 -1.201397,0.243675 -1.728906,0.601091 -0.541313,0.345694 -1.063904,0.720169 -1.52289,1.172454 -0.401538,0.360929 -0.764505,0.75886 -1.024537,1.236167 -0.228674,0.471303 -0.418356,0.961194 -0.523684,1.475942 -0.115335,0.53352 -0.182606,1.074113 -0.276805,1.611498 -0.112479,0.689255 -0.252568,1.374596 -0.287972,2.074552 -0.01445,0.637369 -0.06004,1.270933 -0.159507,1.901376 -0.104194,0.666007 -0.124175,1.34391 -0.270643,2.004452 -0.133565,0.632972 -0.386937,1.22157 -0.617093,1.824204 -0.236063,0.636182 -0.46126,1.276824 -0.438377,1.967197 -0.01628,0.613286 -0.04518,1.24032 0.107727,1.839284 0.283479,0.855422 0.03364,0.06665 -0.890159,-1.616246 -0.01725,-0.03117 0.03145,0.07175 0.01905,0.105132 -0.01489,0.04008 -0.05868,0.06249 -0.09152,0.08988 -0.02484,0.02072 -0.157721,-0.142943 -0.0064,-0.09682 0.0092,-0.540492 0.0097,-1.081142 0.0879,-1.617765 0.05558,-0.809389 0.0608,-1.620159 0.122749,-2.428711 0.06966,-0.812974 0.106786,-1.624903 0.104734,-2.440969 0.03665,-0.785268 0.07002,-1.57076 0.09776,-2.356336 -0.01645,-0.703413 -0.09509,-1.401933 -0.17489,-2.100646 -0.06451,-0.524755 -0.195832,-1.03431 -0.40249,-1.522195 -0.14888,-0.335105 -0.07023,-0.17086 -0.236021,-0.493705 -0.03581,-0.06975 -0.143311,-0.278957 -0.107454,-0.209234 1.629771,3.168895 1.070817,2.081254 0.717274,1.39511 -0.192204,-0.363697 -0.385572,-0.731576 -0.656339,-1.044461 -0.346013,-0.36149 -0.770205,-0.618688 -1.182701,-0.897623 -0.475103,-0.371016 -0.973896,-0.678023 -1.558302,-0.850355 -0.17437,-0.0568 -0.384726,-0.135049 -0.568892,-0.156061 -0.440412,-0.05024 -0.883989,0.05799 -1.32256,0.07236 -0.733216,0.140754 -1.378482,0.472258 -2.023496,0.842381 -0.811298,0.456918 -1.601838,0.957854 -2.269968,1.613597 -0.73173,0.731047 -1.44802,1.483086 -2.10415,2.282956 -0.65722,0.79253 -1.33037,1.57622 -1.89921,2.436452 -0.35372,0.564085 -0.7674,1.160096 -0.79757,1.844647 0.0369,0.656868 0.20789,1.298067 0.50097,1.888339 0.0588,0.115034 0.11738,0.230194 0.17619,0.345229 0.76669,1.503119 -1.23077,-2.384116 -0.39384,-0.759053 0.0712,0.138244 0.14264,0.276369 0.21445,0.414301 0.0678,0.130071 0.13602,0.259889 0.20389,0.389908 0.35501,0.664988 0.70608,1.340561 1.18369,1.927971 0.5074,0.595959 1.0653,1.157198 1.70399,1.613016 0.53523,0.416359 1.09991,0.781948 1.79119,0.855113 0.60999,0.02288 1.196586,-0.04743 1.748233,-0.3353 0.545253,-0.277627 1.089032,-0.559176 1.618853,-0.865472 0.555357,-0.343707 1.098082,-0.71339 1.548395,-1.191745 0.435536,-0.453387 0.767678,-0.979478 0.919076,-1.596739 0.145742,-0.694823 0.224553,-1.388889 0.01021,-2.081697 -0.09205,-0.29182 -0.192509,-0.575074 -0.323547,-0.85217 -0.03995,-0.08445 -0.169339,-0.333103 -0.126638,-0.250014 0.598621,1.159437 1.182908,2.302363 0.709596,1.377174 -0.29831,-0.575674 -0.595367,-1.158969 -0.998742,-1.669899 -0.41736,-0.449308 -0.907832,-0.763232 -1.538447,-0.78867 -0.698081,-0.07872 -1.398975,0.01718 -2.057868,0.264171 -0.734681,0.327481 -1.435011,0.726463 -2.148091,1.097932 -0.43699,0.239158 -0.87518,0.485869 -1.33413,0.678949 -1.15071,-1.970827 -1.65853,-1.684535 -0.43951,-2.78501 0.65352,-0.466839 1.3657,-0.832293 2.10748,-1.139166 0.65512,-0.270518 1.32261,-0.501278 2.011252,-0.671931 0.511756,-0.203641 0.989061,-0.486189 1.463826,-0.763671 0.456958,-0.310298 0.856998,-0.653858 0.975785,-1.221065 0.08011,-0.655226 -0.04531,-1.319834 -0.100671,-1.973821 -0.103024,-0.686773 -0.244956,-1.366094 -0.561331,-1.991265 -0.243766,-0.479125 -0.486554,-0.958743 -0.729368,-1.438351 1.779413,3.457079 0.393441,0.700509 -0.08881,-0.05502 -0.360799,-0.542611 -0.742216,-1.087455 -1.400886,-1.277491 -0.610757,-0.125281 -1.161367,-0.02251 -1.736067,0.216683 -0.84337,0.345774 -1.6358,0.805464 -2.43465,1.241689 -1.11431,0.660724 -2.18073,1.401993 -3.05846,2.366165 -1.13073,1.248544 -2.18724,2.557418 -3.04432,4.013382 -0.85765,1.450037 -1.69296,2.931848 -2.21722,4.540277 -0.18439,0.66312 -0.28115,0.909869 -0.35872,1.59983 -0.13131,1.167909 0.029,2.343349 0.22076,3.49407 0.19626,0.900375 0.41834,1.769267 0.72554,2.639327 0.10275,0.291006 0.20916,0.580806 0.32261,0.867809 0.1117,0.282573 0.56103,1.061722 0.35268,0.840555 -0.28668,-0.304329 -0.39932,-0.734668 -0.59897,-1.10201 0.32374,0.618869 0.64629,1.300303 1.21152,1.738302 0,0 0.77227,2.116885 0.77227,2.116885 z"
         id="path829"
         style="stroke-width:2.39996123;stroke-linecap:square;stroke-linejoin:round;stroke-miterlimit:4;stroke-dasharray:4.79992225, 2.39996113;stroke-dashoffset:327.96282959" />
      <path
         inkscape:connector-curvature="0"
         d="m 68.618971,85.167172 c -0.04602,-1.100764 -0.202589,-2.185997 -0.16648,-3.290762 0.03929,-1.211182 0.468418,-2.307561 1.200291,-3.258936 0.733825,-0.832119 1.639836,-1.487115 2.528571,-2.142149 0.695145,-0.507704 1.355289,-1.025949 2.254797,-0.952219 0.866148,0.315076 1.379294,1.172591 1.90835,1.87969 1.149248,1.578522 2.413336,3.098159 3.18053,4.906053 0.48062,1.016456 0.583464,2.14634 0.727584,3.246725 0.129585,1.203372 0.165667,2.413574 0.231907,3.621773 0.02997,1.003088 -0.124518,1.996719 -0.379401,2.964011 -0.222576,0.731107 -0.580291,1.162649 -1.245235,1.523951 -0.83618,0.30283 -1.610659,-0.0018 -2.333024,-0.432641 -0.803385,-0.563394 -1.554973,-1.195157 -2.248149,-1.88885 -0.407481,-0.427712 -0.722373,-0.920842 -1.366263,-0.876284 -0.661109,0.166102 -1.135091,0.655336 -1.54879,1.168449 -0.537133,0.721323 -0.974796,1.506957 -1.438514,2.276494 -0.47107,0.717535 -1.075923,1.325538 -1.820098,1.75243 -1.013983,0.374827 -1.552407,-0.183289 -2.221726,-0.879397 -1.312646,-1.647828 -2.735116,-3.26966 -3.587371,-5.212865 -0.479696,-1.156088 -0.314833,-2.342833 0.05442,-3.500685 0.519489,-1.176507 1.243403,-2.273193 2.206862,-3.136219 0.216796,-0.194197 0.456608,-0.361051 0.684912,-0.541577 1.810413,-1.177395 3.903754,-1.319053 6.000551,-1.284657 1.989244,0.108037 3.94073,0.576815 5.736224,1.436448 1.022572,0.522137 1.819332,1.308363 2.531514,2.190139 1.066831,1.484337 2.22889,2.915289 3.172742,4.482658 0.490783,0.940265 0.864185,1.622035 0.845026,2.704581 -0.105187,0.811682 -0.424575,1.536776 -0.834344,2.234936 -0.319029,0.598273 -0.865312,0.994818 -1.318027,1.476259 -0.01705,0.05034 -0.05303,0.09793 -0.05114,0.15106 0.0011,0.03109 0.07616,0.09818 0.05907,0.0722 -0.457818,-0.695591 -0.973965,-1.355254 -1.381492,-2.08146 -0.04103,-0.07312 0.161991,0.04525 0.24505,0.05661 0.09679,0.01324 0.81509,0.05705 0.865077,0.06024 1.635742,0.08423 3.27039,0.177432 4.905489,0.274426 2.61221,0.164975 5.218834,0.06295 7.816417,-0.230816 2.018438,-0.219993 3.997614,-0.701102 5.947102,-1.256123 0.248067,-0.127491 1.460907,-0.306446 1.485947,-0.666489 0.008,-0.119785 -0.22625,-0.307571 -0.27447,-0.354723 1.56749,2.2889 1.7079,2.192893 0.82876,1.433635 -0.59212,-0.511381 -1.17929,-1.001784 -1.7302,-1.559448 -1.535075,-1.715325 -2.78595,-3.673769 -3.889068,-5.689574 -0.553911,-1.181532 -0.90371,-2.453751 -1.028085,-3.751475 -0.08124,-1.221552 0.226907,-2.386274 0.653021,-3.518064 0.597588,-1.208036 1.239342,-2.400286 2.025067,-3.497106 0.291109,-0.368018 0.571255,-0.742378 0.877126,-1.098243 9.73e-4,-0.0011 0.451117,-0.399998 0.170159,-0.274804 0.523975,0.725645 1.11395,1.407919 1.57195,2.176911 0.0413,0.06935 -0.11684,0.111424 -0.17709,0.165128 -0.0872,0.07766 -0.1755,0.153996 -0.26503,0.228906 -0.40944,0.342744 -0.834733,0.663698 -1.261731,0.984022 -1.267937,0.992016 -2.598084,1.876735 -4.043235,2.586807 -1.706076,0.793394 -3.342467,0.98193 -5.199481,0.883388 -1.521368,-0.131555 -2.86643,-0.77407 -4.08728,-1.653677 -1.737153,-1.422571 -2.949315,-3.338999 -4.238939,-5.146516 -0.762744,-1.186093 -1.177197,-2.242526 -1.329523,-3.641347 -0.04513,-1.470232 0.45381,-2.83376 1.085473,-4.13479 0.578692,-1.095996 1.387134,-2.014431 2.423519,-2.689334 0.814127,-0.456657 1.698658,-0.478111 2.584657,-0.269421 0.803466,0.202766 1.345781,0.773217 1.864599,1.38062 1.430268,1.566161 2.153168,2.912086 2.851213,4.755339 0.301192,1.000595 0.637909,1.999185 0.799847,3.03379 0.198922,1.057593 0.06823,2.119707 0.0242,3.181678 -0.0037,0.804018 -0.163592,1.591719 -0.46777,2.333571 -0.406081,0.971125 -0.799241,1.941879 -1.106261,2.949575 -0.393021,1.482908 -0.83151,2.9481 -1.08431,4.462929 -0.312463,1.931867 -0.234436,3.892622 -0.135218,5.838779 0.125272,1.770896 0.311186,3.529562 0.68509,5.26595 0.06143,0.228933 0.182083,0.721532 0.284925,0.954585 0.05699,0.129134 0.289383,0.484196 0.208197,0.368732 -0.4162,-0.591906 -0.881265,-1.156975 -1.214186,-1.799422 -0.05967,-0.115152 0.232132,0.123539 0.359194,0.149523 0.178722,0.03655 0.364069,0.02373 0.546106,0.0356 0.795922,-0.02517 1.571635,-0.210398 2.34613,-0.376883 0,0 1.34023,2.034363 1.34023,2.034363 v 0 c -0.779045,0.173335 -1.556403,0.361177 -2.347245,0.474413 -0.07862,0.0046 -0.923968,0.0949 -1.047511,-0.03857 -1.198311,-1.29462 -1.866642,-2.112996 -2.153524,-3.649295 -0.301371,-1.716619 -0.452941,-3.447094 -0.567113,-5.185641 -0.104596,-1.979721 -0.192777,-3.97184 0.118582,-5.939025 0.265233,-1.527883 0.703808,-3.012018 1.078469,-4.51557 0.294965,-1.029652 0.678972,-2.026331 1.070811,-3.022527 0.25321,-0.732938 0.407261,-1.487893 0.422339,-2.266233 0.07402,-1.047124 0.15352,-2.093945 -0.05932,-3.133664 -0.196678,-1.016076 -0.504832,-2.011092 -0.829384,-2.992571 -0.201709,-0.508889 -0.401275,-1.024122 -0.65346,-1.510959 -0.07978,-0.15402 -0.366038,-0.587667 -0.258212,-0.451794 0.336609,0.424166 1.839441,2.489262 0.952337,1.316077 -0.480445,-0.591734 -0.96977,-1.191326 -1.71792,-1.443753 -0.86937,-0.250831 -1.592637,-0.292224 -2.427123,0.130277 -1.018829,0.609338 -1.786515,1.507094 -2.355909,2.545694 -0.616035,1.276838 -1.058065,2.632947 -0.952351,4.07054 0.189971,1.312866 0.648507,2.44277 1.399379,3.542223 -0.344099,-0.469037 -0.696513,-0.932085 -1.032301,-1.407108 -0.136902,-0.193685 0.28792,0.377029 0.435439,0.562754 0.582018,0.732745 1.197753,1.444304 1.915021,2.049169 1.182682,0.905861 2.495127,1.586902 3.994171,1.775223 1.847723,0.127249 3.384064,-0.0456 5.087599,-0.823873 1.426222,-0.710728 2.748366,-1.57644 3.96179,-2.613247 0.406716,-0.335756 0.816949,-0.667535 1.193931,-1.037219 0.08126,-0.07967 0.159682,-0.162273 0.236573,-0.246173 0.05501,-0.06 0.09881,-0.240252 0.158954,-0.185402 0.651336,0.593968 1.187462,1.303109 1.781182,1.954661 -0.52848,0.341983 -0.883892,0.875841 -1.288846,1.344946 -0.784405,1.067637 -1.442763,2.229289 -1.981844,3.43921 -0.390929,1.118999 -0.655603,2.270577 -0.54828,3.465077 0.151916,1.262794 0.482893,2.505264 1.062163,3.642755 0.442957,0.793303 0.284544,0.525605 0.7628,1.316259 0.129421,0.213966 0.555672,0.828295 0.390516,0.640532 -0.366633,-0.416821 -0.664478,-0.889445 -0.999076,-1.332397 -0.145228,-0.192259 0.28001,0.392513 0.430966,0.580308 0.137797,0.171409 0.289745,0.330948 0.43462,0.496422 0.40559,0.423332 0.814892,0.825535 1.266131,1.200665 0.14154,0.117664 0.28597,0.231814 0.42985,0.346597 0.13257,0.105761 0.29199,0.183878 0.39951,0.315024 0.62233,0.759032 1.1875,1.563185 1.78125,2.34478 0.0345,0.09816 0.0978,0.190586 0.10361,0.294485 0.039,0.699546 -1.33441,0.760149 -1.76718,0.919403 -2.006164,0.467741 -4.023603,0.916368 -6.077018,1.118019 -2.590603,0.29728 -5.192582,0.410854 -7.800323,0.325586 -1.603859,-0.0526 -3.206692,-0.118981 -4.81159,-0.125586 -0.384032,-0.0072 -0.476802,-0.01376 -0.841665,-0.004 -0.09934,0.0027 -0.231209,0.08711 -0.297823,0.01337 -1.262558,-1.397654 -2.212652,-1.558136 -1.496249,-2.515712 0.459624,-0.442597 0.963647,-0.8456 1.286261,-1.409763 0.382452,-0.664994 0.671712,-1.373 0.728866,-2.146869 -0.03542,-0.945838 -0.456755,-1.776341 -0.924674,-2.584672 -0.347867,-0.540434 -0.192927,-0.312404 -0.554842,-0.825705 -0.09857,-0.139867 -0.396905,-0.557594 -0.296497,-0.419042 2.31641,3.191258 1.11603,1.547871 0.602232,0.839863 -0.700725,-0.90957 -1.471673,-1.750184 -2.481991,-2.327053 -0.23942,-0.127537 -0.47262,-0.267517 -0.718267,-0.38261 -1.550647,-0.726523 -3.279278,-1.043783 -4.972651,-1.188984 -2.032629,-0.03785 -4.078495,0.08601 -5.819634,1.256641 -0.217962,0.177055 -0.447698,0.340526 -0.653884,0.531164 -0.924824,0.855084 -1.624512,1.936595 -2.083507,3.103381 -0.329801,1.17825 -0.407661,2.254098 0.09638,3.39977 0.46432,0.980289 1.343675,2.131303 -0.539274,-0.433901 -0.135261,-0.184261 0.271467,0.367845 0.409449,0.550079 0.135769,0.179322 0.272199,0.358179 0.411777,0.534552 0.134343,0.169756 0.273279,0.335825 0.409921,0.503736 0.575203,0.637174 0.97343,1.247756 1.906098,1.006138 0.727117,-0.370546 1.277056,-0.979976 1.72592,-1.654263 0.482857,-0.771445 0.914122,-1.574884 1.454843,-2.308619 0.454657,-0.565617 0.982916,-1.078571 1.685304,-1.316684 0.83181,-0.153765 1.07813,0.20933 1.602381,0.802783 0.668751,0.70869 1.399002,1.350274 2.194891,1.914446 0.622649,0.428082 1.316152,0.784637 2.086577,0.554137 0.565995,-0.301371 0.90777,-0.762026 1.091047,-1.379266 0.252026,-0.936796 0.396055,-1.89978 0.353045,-2.872539 -0.0616,-1.20248 -0.08892,-2.409451 -0.243476,-3.604442 -0.150572,-1.096961 -0.301905,-2.207104 -0.794108,-3.213859 -0.22703,-0.493771 -0.472599,-0.959852 -0.764004,-1.419402 -0.105857,-0.166943 -0.443939,-0.653958 -0.325292,-0.495848 0.269473,0.359148 1.775907,2.469577 0.786834,1.09331 -0.499752,-0.680395 -0.978826,-1.442738 -1.700456,-1.906417 -0.08545,-0.02457 -0.167862,-0.06509 -0.256359,-0.0737 -0.698617,-0.06795 -1.331534,0.50054 -1.866636,0.851878 -0.873866,0.635038 -1.763346,1.271384 -2.468802,2.098615 -0.685504,0.927514 -1.088529,1.966825 -1.09977,3.135012 -0.01733,1.133627 0.126884,2.255025 0.303144,3.373789 0,0 -1.773605,-1.965798 -1.773605,-1.965798 z"
         id="path857"
         style="stroke-width:2.83214283;stroke-linecap:square;stroke-linejoin:round;stroke-miterlimit:4;stroke-dasharray:5.66428532, 2.83214266;stroke-dashoffset:327.96282959" />
      <path
         inkscape:connector-curvature="0"
         d="m 104.32453,93.625095 c -0.37968,-0.599626 -0.69111,-1.228859 -0.96911,-1.88109 -0.74011,-1.556689 -1.19987,-3.215804 -1.58343,-4.889641 -0.26744,-1.613133 -0.46484,-3.248247 -0.27494,-4.879241 0.27575,-1.25317 0.93087,-2.162172 1.82962,-3.041224 1.12973,-1.043727 2.22929,-2.117043 3.40475,-3.109952 0.65354,-0.504928 1.29724,-1.045229 2.03212,-1.431473 0.27477,-0.14442 0.80611,-0.36999 1.0915,-0.494414 1.08279,-0.409951 2.22304,-0.529157 3.37156,-0.507147 0.82485,-0.02836 1.62338,0.04803 2.38523,0.372796 0.64966,0.308041 1.12525,0.809879 1.55446,1.371071 0.92747,1.419004 1.91651,2.837734 2.54636,4.416343 0.37257,1.082947 0.52858,2.224431 0.68117,3.354946 0.16427,1.106794 0.094,2.228534 0.0452,3.341095 -0.0858,0.998935 -0.19475,1.994734 -0.35782,2.984044 -0.15791,0.827943 -0.46312,1.605586 -0.82721,2.360881 -0.26566,0.623987 -0.64647,1.185559 -1.01926,1.748136 -0.35488,0.574875 -0.84909,1.008956 -1.39492,1.393704 -0.69345,0.495813 -1.26082,0.649635 -2.10256,0.577046 -0.96062,-0.130776 -1.78067,-0.63788 -2.54358,-1.204524 -0.90115,-0.659667 -1.54811,-1.560952 -2.15753,-2.480504 -1.25072,-1.960852 -2.11985,-3.386117 -2.34247,-5.614624 -0.0797,-0.910783 0.13701,-1.519257 0.6618,-2.247565 0.51631,-0.609307 1.10407,-1.158118 1.75025,-1.626721 0.61461,-0.489685 1.30155,-0.805456 2.07273,-0.940625 0.93693,-0.07145 1.8394,0.208913 2.70502,0.535152 0.59584,0.2583 1.17663,0.545553 1.77287,0.803734 0.45369,0.229198 0.89827,0.260125 1.38057,0.127658 0.3064,-0.102627 0.58857,-0.261782 0.87217,-0.413798 0,0 1.32845,2.253863 1.32845,2.253863 v 0 c -0.29536,0.171717 -0.59463,0.33907 -0.91821,0.452888 -0.52529,0.160268 -1.03488,0.186948 -1.54544,-0.05384 -0.60953,-0.258745 -1.19415,-0.559659 -1.78856,-0.849602 -0.81077,-0.350231 -1.67679,-0.636884 -2.57125,-0.584965 -0.73478,0.117292 -1.38513,0.408715 -1.96948,0.8747 -0.61338,0.469512 -1.20123,0.97191 -1.67966,1.58361 -0.43655,0.645522 -0.61927,1.342796 -0.52317,2.125107 0.083,0.742182 0.23237,1.469566 0.51898,2.163047 0.0858,0.207507 0.41752,0.791772 0.28572,0.609992 -0.35009,-0.482851 -0.63001,-1.012875 -0.94502,-1.519313 0.59086,0.903532 1.2029,1.806752 2.06351,2.479188 0.71622,0.550658 1.48435,1.080337 2.3977,1.220376 0.78594,0.101969 1.28771,-0.0065 1.93216,-0.493357 0.51044,-0.376471 0.98058,-0.792011 1.31953,-1.336751 0.36591,-0.556746 0.71182,-1.127283 0.98736,-1.735279 0.35795,-0.726302 0.65759,-1.477013 0.79115,-2.281047 0.15782,-0.981367 0.26551,-1.971062 0.33725,-2.962306 0.0529,-1.097109 0.11284,-2.201432 -0.0663,-3.291485 -0.16088,-1.126372 -0.33033,-2.265228 -0.74651,-3.33074 -0.4944,-1.10544 -0.29761,-0.611984 0.84341,1.26379 0.0737,0.121092 -0.14563,-0.243222 -0.21904,-0.364482 -0.12643,-0.208939 -0.27084,-0.445987 -0.4035,-0.651386 -0.0626,-0.09694 -0.1277,-0.192257 -0.19155,-0.288385 -0.39597,-0.557834 -0.81955,-1.08643 -1.43576,-1.415295 -0.71744,-0.387259 -1.50266,-0.484434 -2.31296,-0.466617 -1.11833,-0.05682 -2.22687,0.03385 -3.28448,0.431754 -1.11245,0.481132 -2.15099,1.072023 -3.08202,1.85799 -1.19075,0.964862 -2.29192,2.026633 -3.37225,3.112897 -0.83778,0.893745 -1.44953,1.718736 -1.68873,2.954024 -0.18049,1.589 -0.009,3.187255 0.28627,4.753887 0.39856,1.698173 0.91012,3.364952 1.68102,4.935848 0.32196,0.685839 0.68462,1.345829 1.09222,1.984753 0,0 -1.70541,-2.056918 -1.70541,-2.056918 z"
         id="path863"
         style="stroke-width:2.84426928;stroke-linecap:square;stroke-linejoin:round;stroke-miterlimit:4;stroke-dasharray:5.68853814, 2.84426907;stroke-dashoffset:327.96282959" />
      <path
         inkscape:connector-curvature="0"
         d="m 128.75011,91.648025 c -0.67766,-0.596147 -1.11696,-1.371049 -1.53618,-2.156667 -0.73828,-1.631614 -1.47282,-3.269649 -2.11689,-4.941637 -0.41143,-1.175479 -0.82624,-2.383509 -0.99561,-3.624258 -0.0867,-0.634996 -0.0589,-0.891193 -0.0476,-1.519505 0.0596,-1.233884 0.56824,-2.287956 1.24281,-3.292558 0.58752,-0.780512 1.27392,-1.444395 2.16572,-1.852647 0.88688,-0.291643 1.55182,-0.13189 2.34551,0.305411 0.82124,0.534047 1.52093,1.228701 2.22518,1.903831 0.90436,1.201202 2.25493,2.006312 3.20453,3.172297 0.13484,0.165562 0.48164,0.649049 0.6101,0.826293 0.48561,0.6982 0.73732,1.481142 0.88087,2.309413 0.20682,0.708174 0.19067,1.395221 -0.002,2.099674 -0.14533,0.665457 -0.39446,1.274445 -0.97504,1.661544 -0.50092,0.218226 -0.9744,0.005 -1.45434,-0.15533 -0.56029,-0.211288 -1.15173,-0.266384 -1.74207,-0.186644 -0.59561,0.12881 -1.04579,0.49975 -1.37935,0.995548 -0.32103,0.59494 -0.43103,1.28126 -0.54427,1.942504 -0.17896,0.816267 -0.70898,1.474386 -1.218,2.113224 -0.42912,0.465582 -0.83382,0.987644 -1.37647,1.33147 -0.38275,0.242514 -0.55179,0.260751 -0.98399,0.391318 -0.89243,0.224425 -1.79836,0.203639 -2.66737,-0.08956 -0.6299,-0.270515 -1.12478,-0.746572 -1.61505,-1.211174 -1.82654,-1.759832 -2.59806,-2.001549 -2.53317,-4.248378 0.22685,-1.2225 0.74638,-2.350006 1.41136,-3.390701 1.10874,-1.670423 2.6163,-2.603451 4.34114,-3.537189 2.15797,-1.113887 4.39784,-1.380923 6.78663,-1.423818 1.6543,0.01768 3.31359,0.172145 4.88003,0.724055 0.62622,0.251396 1.20229,0.61602 1.682,1.092572 2.18631,2.171911 1.59332,1.337589 2.43647,2.61486 0.52725,0.859879 0.84691,1.814 1.04683,2.796786 0.0993,0.859412 0.0827,1.622497 -0.28592,2.413627 -0.48124,0.868979 -1.19027,1.5873 -1.95488,2.209932 -0.7506,0.523276 -1.58989,0.680529 -2.46975,0.463309 -1.6222,-0.826488 -3.03162,-2.180265 -3.95713,-3.748598 -0.58818,-0.975916 -1.06324,-2.006786 -1.27964,-3.127554 -0.20275,-1.443521 0.15734,-2.870683 0.63282,-4.223439 0.50708,-1.399371 1.36842,-2.603591 2.30278,-3.74421 0.70897,-0.899427 1.52542,-1.653533 2.55288,-2.162003 1.12116,-0.540018 2.18177,-0.372532 3.32308,-0.0017 0.84667,0.361172 1.62002,0.883717 2.28204,1.523691 2.2658,2.190325 1.67186,1.499052 2.79416,2.896662 0.96938,1.34427 1.63099,2.868175 2.24907,4.396465 0.48153,1.019135 0.72314,1.989614 0.63431,3.111545 -0.19693,1.235624 -1.02339,2.178786 -1.79728,3.107193 -1.00481,1.132598 -2.26004,1.985436 -3.57952,2.706968 -0.16862,0.07806 -0.33419,0.163063 -0.50586,0.234164 -0.0693,0.02871 -0.96021,0.357366 -1.04313,0.285141 -2.12561,-1.851405 -2.50831,-1.214214 -1.77832,-2.1399 0.82636,-0.606575 1.92064,-0.583074 2.90222,-0.59263 1.11082,-0.03003 2.21494,0.138056 3.30432,0.337681 0.66681,0.103851 1.28064,0.340859 1.84004,0.712839 0.88475,0.814274 2.65371,1.49365 2.55873,2.78224 -0.008,0.104783 -0.0408,0.20613 -0.0613,0.309194 -0.33571,0.901471 -0.80608,1.729508 -1.36639,2.507603 -0.51085,0.673746 -1.02386,1.361655 -1.74467,1.818828 -0.82176,0.445097 -1.68753,0.304084 -2.53621,0.02882 -1.47101,-0.573793 -2.35598,-1.729295 -3.49314,-2.842891 -0.31558,-0.567421 0.002,-1.030612 0.34828,-1.488738 0.91364,-1.020259 2.16709,-1.672444 3.37255,-2.285015 1.30244,-0.664822 2.70071,-1.070772 4.134,-1.326756 0.68824,-0.111002 1.35777,-0.154464 2.03635,0.0096 0.50119,0.09712 0.89223,0.408152 1.27234,0.728538 1.16306,1.045735 2.35622,1.916412 2.60911,3.469649 0.10994,0.885176 -0.0677,1.746105 -0.3887,2.567347 -0.48834,0.950349 -0.99273,1.895503 -1.54607,2.810139 -0.50174,0.80153 -1.25446,1.35881 -2.06348,1.81784 -1.12947,0.6023 -2.37022,0.64232 -3.61766,0.63215 -1.67941,-0.14006 -3.21869,-0.95375 -4.70635,-1.69133 -1.78284,-0.881519 -3.32802,-2.131012 -4.81591,-3.432564 -1.72613,-1.515038 -3.31219,-3.180759 -4.99052,-4.746174 -0.43789,-0.408432 0.84759,0.846082 1.27138,1.269124 -0.4504,-0.341433 -1.02609,-0.859477 -1.64011,-0.615343 -0.11918,0.04738 -0.22566,0.121925 -0.33849,0.182888 -1.06035,0.776729 -1.88634,1.833398 -2.67439,2.874497 -0.48888,0.645732 -0.25483,0.32357 -0.70339,0.965585 0,0 -1.83717,-1.730338 -1.83717,-1.730338 v 0 c 0.46623,-0.63916 0.22381,-0.32028 0.72824,-0.955889 0.83402,-1.048213 1.67222,-2.113149 2.68642,-2.994613 1.01376,-0.663432 1.33416,-0.40683 2.27069,0.278673 2.57602,2.45196 3.04164,2.906821 1.06535,0.995443 -0.20856,-0.201705 0.41642,0.40411 0.62547,0.605299 0.43608,0.41971 0.91529,0.877624 1.35798,1.289041 0.2428,0.225644 0.48839,0.448258 0.73259,0.672392 1.47447,1.30287 2.99724,2.568407 4.7621,3.465362 1.44611,0.716631 2.94059,1.490277 4.56025,1.688807 1.2,0.0129 2.39704,0.0102 3.48381,-0.57856 0.76835,-0.453014 1.48683,-0.966122 1.96509,-1.740604 0.57567,-0.87923 1.08565,-1.801228 1.52473,-2.756248 0.27164,-0.80535 0.4205,-1.640731 0.25915,-2.487904 -0.36658,-1.342288 -1.87162,-2.608912 0.99728,0.225884 -0.34979,-0.314021 -0.70307,-0.653459 -1.16372,-0.791233 -0.15837,-0.03994 -0.31085,-0.101222 -0.4693,-0.140843 -0.5112,-0.127829 -1.04152,-0.01994 -1.55872,-0.01581 -1.43451,0.19748 -2.83144,0.563894 -4.1361,1.20872 -1.15342,0.602297 -2.36213,1.268945 -3.17359,2.313386 -0.28083,0.419737 -0.48425,0.801482 -0.10338,1.232365 -3.37472,-3.221535 -1.34707,-1.114492 -0.26947,-0.668863 0.76444,0.299015 1.58251,0.503176 2.35522,0.111712 0.70933,-0.407518 1.18253,-1.099909 1.69531,-1.721886 0.53369,-0.748241 1.02177,-1.544859 1.23215,-2.45077 6.5e-4,-0.08453 0.0155,-0.170225 0.002,-0.253596 -0.0123,-0.07345 -0.13535,-0.257783 -0.0791,-0.208968 3.33473,2.893845 1.8817,1.816105 1.17242,1.135742 -0.5334,-0.413576 -1.12242,-0.707202 -1.79239,-0.832419 -1.08485,-0.216867 -2.18337,-0.432359 -3.29458,-0.401416 -0.86532,-0.0018 -1.91262,-0.05166 -2.62565,0.517683 0.0931,0.870365 0.0233,0.152149 -1.86641,-1.680147 -0.0485,-0.04701 0.11889,0.0767 0.18637,0.07948 0.4585,0.01893 0.9109,-0.261558 1.32929,-0.393303 1.3163,-0.675775 2.57382,-1.464839 3.52876,-2.618908 0.73542,-0.902885 1.49616,-1.849474 1.62679,-3.048001 0.0494,-1.045556 -0.20255,-2.012971 -0.63415,-2.96722 -0.60498,-1.517143 -1.27547,-3.021594 -2.27842,-4.32425 -0.82889,-0.986242 -0.79564,-0.89661 0.68903,0.511125 0.18091,0.171533 -0.36009,-0.345448 -0.55138,-0.505339 -0.4943,-0.413308 -1.04193,-0.763743 -1.62331,-1.040463 -1.03046,-0.386531 -2.12399,-0.605447 -3.16024,-0.11525 -1.00425,0.478009 -1.80178,1.200378 -2.50094,2.06296 -0.934,1.098578 -1.78868,2.267397 -2.2846,3.636891 -0.44128,1.349713 -0.74505,2.756095 -0.47995,4.17752 0.25301,1.090836 0.73492,2.101273 1.32652,3.050322 0.57479,0.849636 1.81427,2.085635 -0.77028,-0.504775 -0.0827,-0.0829 0.29798,0.281615 0.71534,0.557237 0.10746,0.07096 0.22158,0.131285 0.33237,0.196927 0.80249,0.300573 1.58811,0.202437 2.31986,-0.254738 0.73892,-0.598966 1.39747,-1.299634 1.84003,-2.150276 0.29626,-0.737352 0.32106,-1.502676 0.19098,-2.285507 -0.20855,-0.954321 -0.53649,-1.878194 -1.08255,-2.696234 -0.72456,-0.997664 -0.37136,-0.453006 1.13699,0.918479 0.12569,0.114288 -0.23333,-0.247648 -0.36065,-0.360121 -0.19095,-0.168667 -0.57935,-0.443836 -0.79795,-0.57235 -0.14918,-0.0877 -0.30694,-0.159903 -0.46041,-0.239855 -1.55982,-0.648671 -3.23219,-0.852447 -4.91322,-0.905514 -2.3128,0.0052 -4.61803,0.251407 -6.69909,1.348135 -1.73316,0.955245 -3.08147,1.834173 -4.153,3.54812 -0.63078,1.016479 -1.15121,2.113708 -1.28128,3.318149 0.007,0.456346 0.0251,0.913474 0.1864,1.348063 0.32938,0.887423 1.81297,2.063327 -1.1728,-0.807208 0.47623,0.462135 0.95021,0.939935 1.53203,1.270142 0.82207,0.366782 1.6941,0.446126 2.57649,0.24138 0.35242,-0.09787 0.59337,-0.136907 0.90778,-0.330007 0.53041,-0.325752 0.91257,-0.849535 1.31946,-1.305471 0.49337,-0.607212 0.97448,-1.243046 1.11392,-2.033162 0.13018,-0.6948 0.26009,-1.407708 0.61689,-2.027361 0.38388,-0.536814 0.8652,-0.986584 1.52199,-1.150124 0.6018,-0.10743 1.24536,-0.106502 1.82595,0.102132 0.42759,0.119835 0.82999,0.366911 1.28747,0.295381 0.56953,-0.283027 0.71413,-0.916158 0.85369,-1.49121 0.15222,-0.678919 0.12259,-1.328397 -0.0573,-2.003789 -0.16258,-0.791914 -0.44672,-1.539142 -0.92487,-2.19928 -0.22468,-0.303494 -0.37209,-0.51485 -0.62234,-0.801633 -0.61625,-0.706218 -2.66296,-2.54696 0.39857,0.347109 -0.69341,-0.672464 -1.38186,-1.358875 -2.16686,-1.925823 -0.68195,-0.43361 -1.34304,-0.691323 -2.15582,-0.45529 -0.88022,0.347508 -1.53894,0.96072 -2.08079,1.734022 -0.67534,0.940681 -1.15076,1.951919 -1.20042,3.131578 -0.01,0.635494 -0.036,0.81418 0.052,1.458107 0.16673,1.22136 0.56064,2.409494 0.98623,3.560237 0.66404,1.689646 1.41034,3.353348 2.21908,4.977929 0.46751,0.816149 0.98764,1.585069 1.717,2.193639 0,0 -2.18482,-1.538164 -2.18482,-1.538164 z"
         id="path865"
         style="stroke-width:2.84426928;stroke-linecap:square;stroke-linejoin:round;stroke-miterlimit:4;stroke-dasharray:5.68853814, 2.84426907;stroke-dashoffset:327.96282959" />
      <g
         transform="matrix(0.18865923,0.26402634,-0.26402634,0.18865923,98.53807,69.828555)"
         id="g895">
        <path
           style="stroke-width:8.76500034;stroke-linecap:square;stroke-linejoin:round;stroke-miterlimit:4;stroke-dasharray:17.5300001, 8.76500005;stroke-dashoffset:327.96282959"
           id="path885"
           d="m 135.43659,-138.5426 c -2.29927,-0.0236 -4.59875,-0.0249 -6.89813,-0.0284 -2.65737,0.24917 -9.15119,-0.64939 2.65921,0.0664 0.57572,0.0349 -1.14817,0.1131 -1.72013,0.18749 -1.44454,0.18789 -1.68729,0.26345 -3.10061,0.55175 -2.28567,0.6992 -4.64123,1.25213 -6.74647,2.41108 -1.93026,1.05231 -3.49809,2.49018 -4.85591,4.19719 -1.35513,1.74192 -2.28715,3.73576 -2.90259,5.84388 -0.56695,1.88844 -0.34326,3.68733 0.35827,5.49471 0.8416,1.76112 1.76951,3.52236 3.07525,4.98539 1.09174,1.05496 2.19817,1.77878 3.68793,2.08081 3.01838,0.3094 2.33603,0.21613 -6.51244,0.007 -0.2387,-0.006 0.47852,-0.0317 0.71122,-0.0852 0.80528,-0.18508 1.4306,-0.62323 2.0723,-1.11483 1.56311,-1.55651 2.54212,-3.56792 3.58987,-5.48114 1.18105,-2.30474 2.42679,-4.55191 4.07398,-6.55865 1.38005,-1.65399 2.60807,-3.43259 4.04394,-5.03902 0.95233,-1.23531 2.09313,-2.05169 3.58221,-2.48143 4.01932,-0.64592 8.38134,-0.21217 12.32237,-0.14769 1.55626,0.24192 2.38008,1.27534 2.89764,2.67386 0.42896,1.5276 0.39142,3.12301 0.39544,4.69413 -0.10105,1.83869 -0.52607,3.60182 -1.39673,5.22211 -0.7002,1.52484 -1.77837,2.81146 -2.72287,4.18191 -0.63107,0.89892 -1.26149,1.787 -1.79108,2.75005 0,0 -8.06016,-0.39415 -8.06016,-0.39415 v 0 c 0.51486,-0.9998 1.13242,-1.91881 1.78605,-2.83318 0.90269,-1.37964 2.06069,-2.58514 2.73554,-4.10653 0.83276,-1.5073 1.35785,-3.06763 1.39852,-4.81264 -0.024,-1.46593 -0.0116,-2.97146 -0.45811,-4.3825 -0.56798,-1.20296 -1.48974,-1.71618 -2.81578,-1.83363 14.16256,-0.0785 6.98047,-0.16259 3.74526,0.0803 -1.47938,0.23305 -2.6716,0.76675 -3.60094,2.00095 -1.54254,1.51444 -2.75158,3.34644 -4.15626,4.98415 -1.68225,1.91971 -2.90698,4.11828 -4.03181,6.40124 -1.08514,1.97262 -2.07908,4.01729 -3.50347,5.77717 -3.28084,3.09121 -7.93333,2.61585 -12.34812,1.55112 -1.46918,-0.5068 -2.62458,-1.42176 -3.65841,-2.57868 -1.24892,-1.61289 -2.25217,-3.40828 -3.09107,-5.26541 -0.66,-1.99633 -0.93887,-3.93828 -0.33789,-6.00137 0.65714,-2.18961 1.60037,-4.28202 2.94338,-6.14346 1.37244,-1.77885 2.87678,-3.36801 4.85055,-4.49793 2.13512,-1.33768 4.5737,-1.85896 6.94712,-2.64222 1.56813,-0.3576 3.2768,-0.80496 4.89125,-0.85613 4.26231,-0.13509 8.52719,-0.1056 12.79076,-0.11444 2.41891,-0.004 4.83791,-0.006 7.25672,-0.0284 0,0 -8.1058,1.28383 -8.1058,1.28383 z"
           inkscape:connector-curvature="0" />
        <path
           style="stroke-width:8.76500034;stroke-linecap:square;stroke-linejoin:round;stroke-miterlimit:4;stroke-dasharray:17.5300001, 8.76500005;stroke-dashoffset:327.96282959"
           id="path887"
           d="m 131.29323,-113.88579 c 0.5816,-1.25648 1.45907,-2.32596 2.47476,-3.25288 1.07577,-1.0683 2.32503,-1.83272 3.6929,-2.45819 1.35345,-0.71109 2.82168,-1.03426 4.32619,-1.20987 4.15611,-0.25971 8.3527,-0.12459 12.50374,-0.12426 1.58279,0.0384 3.17109,-0.0913 4.73951,0.14528 1.90101,0.45997 3.63162,1.34238 5.35643,2.23621 1.68624,1.06608 3.43599,2.05527 4.91683,3.40334 1.41097,1.5654 2.22066,3.51323 2.79969,5.5121 0.44995,1.69469 0.55293,3.40344 0.31604,5.13248 -0.3236,1.88362 -1.50654,2.95452 -3.0446,3.94026 -1.81462,1.140826 -3.84514,1.634446 -5.94192,1.910042 -4.81721,0.33461 -9.67916,0.176143 -14.4968,0.174971 -2.18793,-0.0083 -4.37587,-0.0118 -6.56381,-0.01196 -1.62764,2.65e-4 -3.25528,0.0011 -4.88292,0.0016 -3.20253,5.29e-4 -0.6988,7.6e-5 6.47586,2.19e-4 0.25103,5e-6 -0.50204,3.2e-5 -0.75306,4.5e-5 -0.001,0 -1.50508,6.9e-5 -1.50602,5.6e-5 -2.94205,-0.0415 -5.88399,-0.0901 -8.82599,-0.135149 0,0 7.97431,-1.175923 7.97431,-1.175923 v 0 c -18.45384,0.118034 3.52346,-0.01278 4.62164,0.04587 1.61038,7.94e-4 3.22077,0.0021 4.83114,0.0081 2.1603,0.0083 4.32059,0.01931 6.4809,0.02474 -13.62041,0.0031 -4.45016,0.07341 -1.28877,-0.09997 2.05964,-0.183601 4.09166,-0.510771 5.91738,-1.552511 1.38085,-0.83169 2.53508,-1.58477 2.92372,-3.24487 0.23972,-1.61173 0.15333,-3.20678 -0.25941,-4.79172 -0.54372,-1.87685 -1.33826,-3.68975 -2.78758,-5.05209 -1.49694,-1.2405 -3.18263,-2.2479 -4.86975,-3.20595 -1.71529,-0.83495 -3.43778,-1.69757 -5.35626,-1.94304 -1.58673,-0.0904 -3.17686,-0.0387 -4.76569,-0.0578 14.01216,-0.002 6.71015,-0.0581 3.4899,0.0524 -1.47599,0.0994 -2.95209,0.27481 -4.30232,0.92736 -1.30411,0.63825 -2.64783,1.14038 -3.65495,2.25674 -0.97755,0.73541 -1.8223,1.68181 -2.31575,2.80908 0,0 -8.22534,-0.26474 -8.22534,-0.26474 z"
           inkscape:connector-curvature="0" />
      </g>
      <path
         inkscape:connector-curvature="0"
         d="m 149.59986,64.882194 c -0.0196,0.578991 0.13379,1.152109 0.28014,1.70811 0.12802,0.632667 0.45029,1.198249 0.82086,1.719174 0.32299,0.423906 0.73715,0.76067 1.15319,1.087986 0.97717,0.748923 -1.06048,-0.796959 -1.57803,-1.211614 -0.0948,-0.07594 0.2052,0.130251 0.3112,0.189532 0.3009,0.168271 0.61969,0.298158 0.93964,0.424302 0.58731,0.222559 1.18753,0.172914 1.7858,0.03822 0.50497,-0.121177 0.89073,-0.430974 1.24288,-0.795615 0.31011,-0.390252 0.0704,-0.736244 -0.0615,-1.14162 -0.2258,-0.508163 -0.50009,-0.993774 -0.74689,-1.492242 -0.25031,-0.647512 -0.54972,-1.284296 -0.8838,-1.89339 -0.3989,-0.705407 -0.58566,-1.474879 -0.75402,-2.258103 -0.0446,-0.545937 -0.0195,-0.279577 -0.0743,-0.799163 0,0 2.17212,1.400604 2.17212,1.400604 v 0 c 0.0451,0.506042 0.0179,0.250046 0.0825,0.767899 0.17257,0.767754 0.40556,1.507888 0.79226,2.19918 0.32335,0.62621 0.63892,1.258193 0.90481,1.91127 0.26308,0.502626 0.5466,0.999438 0.7422,1.533237 0.17538,0.495608 0.27848,0.94065 -0.099,1.378937 -0.38287,0.400041 -0.80368,0.74876 -1.34845,0.901713 -0.62768,0.159882 -1.26646,0.258199 -1.9012,0.06321 -1.46396,-0.498922 -2.66048,-1.434962 -3.83672,-2.458576 -0.40972,-0.340206 -0.80671,-0.699899 -1.10066,-1.149188 -0.34796,-0.555567 -0.6443,-1.138932 -0.76673,-1.789291 -0.14784,-0.593899 -0.27997,-1.200615 -0.29465,-1.814468 0,0 2.21828,1.479907 2.21828,1.479907 z"
         id="path889"
         style="stroke-width:2.84426928;stroke-linecap:square;stroke-linejoin:round;stroke-miterlimit:4;stroke-dasharray:5.68853814, 2.84426907;stroke-dashoffset:327.96282959" />
    </g>
  </g>
</svg>
